<svg width="24" height="24" viewBox="0 0 24 24" fill="none" xmlns="http://www.w3.org/2000/svg">
<g id="Group">
<path id="Vector" d="M8.67002 5.007C9.32633 3.61863 10.421 2.48461 11.7853 1.77968C13.1496 1.07475 14.7079 0.83803 16.22 1.106C15.9623 1.89588 15.9282 2.7417 16.1217 3.54974C16.3151 4.35778 16.7285 5.09648 17.316 5.684C17.9035 6.27151 18.6422 6.6849 19.4503 6.87835C20.2583 7.0718 21.1041 7.03776 21.894 6.78C21.964 7.176 22 7.584 22 8C22.0018 9.17941 21.7041 10.34 21.135 11.373C21.9735 12.1116 22.567 13.0881 22.8367 14.1724C23.1065 15.2567 23.0395 16.3975 22.6448 17.4428C22.2501 18.4882 21.5464 19.3885 20.6273 20.024C19.7082 20.6594 18.6174 20.9999 17.5 21H9.00002C6.90766 20.9988 4.89904 20.1779 3.40475 18.7133C1.91046 17.2487 1.04945 15.257 1.00628 13.165C0.963117 11.0731 1.74124 9.04755 3.17384 7.52255C4.60644 5.99755 6.57949 5.0945 8.67002 5.007ZM10.847 5.214C12.1073 5.5143 13.2759 6.11558 14.253 6.96635C15.23 7.81712 15.9863 8.89202 16.457 10.099C17.4476 9.90916 18.4712 9.99389 19.417 10.344C19.643 9.919 19.81 9.459 19.905 8.974C18.3928 8.83462 16.977 8.17029 15.9034 7.09627C14.8297 6.02224 14.1659 4.60628 14.027 3.094C12.7282 3.35199 11.5847 4.11435 10.847 5.214Z" fill="#FFA800"/>
</g>
</svg>
